<?xml version="1.0" standalone="no"?><!DOCTYPE svg PUBLIC "-//W3C//DTD SVG 1.1//EN" "http://www.w3.org/Graphics/SVG/1.1/DTD/svg11.dtd"><svg t="1574817367135" class="icon" viewBox="0 0 1024 1024" version="1.1" xmlns="http://www.w3.org/2000/svg" p-id="2930" xmlns:xlink="http://www.w3.org/1999/xlink" width="128" height="128"><defs><style type="text/css"></style></defs><path d="M511.654123 63.578014c-247.134587 0-448.187649 201.053062-448.187649 448.187649s201.053062 448.187649 448.187649 448.187649c92.572372 0 181.438329-27.990494 256.979816-80.944544 15.022135-10.525728 18.652825-31.232328 8.137331-46.243207-10.525728-15.010879-31.242562-18.664082-46.243207-8.137331-64.322981 45.097104-140.004661 68.926836-218.873939 68.926836-104.838743 0-199.924355-42.49279-268.989337-111.138216 8.464789-1.661849 21.74628 2.224668 42.129516 22.607904l143.862525-11.066033c0 0 68.161403-14.532995 153.408949-114.756627l-197.674105 59.425438-22.13309-0.184195 242.253416-87.177502c13.299911-17.503653 26.88737-37.081547 40.591487-59.047838L340.125491 705.427384l-22.13309 0 352.802208-157.071362c15.176654-27.53717 30.355355-57.945737 45.302789-91.911316L284.793278 661.162228l-22.13309 0 478.357785-265.138636c14.3488-37.186947 28.343535-77.804017 41.761126-122.184807L240.528122 583.696925c0 0-9.613962 66.522066-72.742744 93.861738-24.287149-50.169633-37.920658-106.416681-37.920658-165.793 0-210.520691 171.269735-381.789403 381.789403-381.789403s381.789403 171.269735 381.789403 381.789403c0 78.869279-23.829731 154.550958-68.926836 218.873939-10.515494 15.010879-6.883781 35.71748 8.137331 46.243207 14.999622 10.525728 35.706223 6.883781 46.243207-8.137331 52.954049-75.540464 80.944544-164.40642 80.944544-256.979816C959.841771 264.631076 758.788709 63.578014 511.654123 63.578014z" p-id="2931"></path></svg>